<svg xmlns="http://www.w3.org/2000/svg" viewBox="0 0 800 600" width="800" height="600">
  <rect width="800" height="600" fill="#fff"/>
  <path d="M50 200 Q200 180 400 210 Q600 190 750 205" fill="none" stroke="#111" stroke-width="2"/>
  <path d="M50 280 Q200 260 400 290 Q600 270 750 285" fill="none" stroke="#111" stroke-width="2"/>
  <rect x="180" y="220" width="440" height="120" fill="none" stroke="#111" stroke-width="3"/>
  <circle cx="400" cy="280" r="70" fill="none" stroke="#111" stroke-width="3"/>
  <line x1="340" y1="230" x2="350" y2="215" stroke="#111" stroke-width="2"/>
  <line x1="380" y1="215" x2="390" y2="230" stroke="#111" stroke-width="2"/>
  <line x1="410" y1="215" x2="420" y2="230" stroke="#111" stroke-width="2"/>
  <line x1="450" y1="230" x2="460" y2="215" stroke="#111" stroke-width="2"/>
  <rect x="300" y="310" width="200" height="40" fill="none" stroke="#111" stroke-width="2"/>
  <rect x="320" y="318" width="20" height="24" fill="none" stroke="#111" stroke-width="1.5"/>
  <rect x="380" y="318" width="20" height="24" fill="none" stroke="#111" stroke-width="1.5"/>
  <rect x="440" y="318" width="20" height="24" fill="none" stroke="#111" stroke-width="1.5"/>
  <circle cx="350" cy="330" r="6" fill="none" stroke="#111" stroke-width="1.5"/>
  <circle cx="450" cy="330" r="6" fill="none" stroke="#111" stroke-width="1.5"/>
  <line x1="400" y1="350" x2="400" y2="400" stroke="#111" stroke-width="1"/>
  <text x="405" y="410" font-family="Helvetica, Arial, sans-serif" font-size="14">20</text>
  <line x1="220" y1="280" x2="150" y2="320" stroke="#111" stroke-width="1"/>
  <text x="110" y="335" font-family="Helvetica, Arial, sans-serif" font-size="14">16</text>
  <line x1="400" y1="210" x2="400" y2="160" stroke="#111" stroke-width="1"/>
  <text x="405" y="155" font-family="Helvetica, Arial, sans-serif" font-size="14">18</text>
  <rect x="620" y="240" width="80" height="80" fill="none" stroke="#111" stroke-width="2"/>
  <line x1="660" y1="280" x2="540" y2="280" stroke="#111" stroke-width="3"/>
  <text x="670" y="300" font-family="Helvetica, Arial, sans-serif" font-size="14">18</text>
  <rect x="50" y="380" width="120" height="80" fill="none" stroke="#111" stroke-width="2"/>
  <text x="70" y="430" font-family="Helvetica, Arial, sans-serif" font-size="14">14</text>
  <rect x="60" y="390" width="40" height="25" fill="none" stroke="#111" stroke-width="1.5"/>
  <text x="105" y="405" font-family="Helvetica, Arial, sans-serif" font-size="11">12</text>
  <line x1="170" y1="420" x2="300" y2="350" stroke="#111" stroke-width="1.5" stroke-dasharray="4,2"/>
  <path d="M50 200 L50 550 L750 550 L750 285" fill="none" stroke="#111" stroke-width="0.5" stroke-opacity="0.3"/>
  <text x="400" y="580" font-family="Helvetica, Arial, sans-serif" font-size="16" text-anchor="middle">FIG. 1</text>
</svg>