<svg xmlns="http://www.w3.org/2000/svg" width="800" height="600" viewBox="0 0 800 600">
  <rect width="800" height="600" fill="#FFFFFF"/>
  <rect x="100" y="200" width="600" height="80" fill="none" stroke="#111" stroke-width="3"/>
  <line x1="100" y1="200" x2="700" y2="200" stroke="#111" stroke-width="2"/>
  <rect x="350" y="140" width="40" height="140" fill="none" stroke="#111" stroke-width="2"/>
  <circle cx="370" cy="200" r="20" fill="none" stroke="#111" stroke-width="2"/>
  <rect x="340" y="195" width="60" height="12" fill="none" stroke="#111" stroke-width="2"/>
  <rect x="340" y="208" width="60" height="12" fill="none" stroke="#111" stroke-width="2"/>
  <line x1="345" y1="220" x2="345" y2="240" stroke="#111" stroke-width="1.5"/>
  <line x1="355" y1="220" x2="355" y2="240" stroke="#111" stroke-width="1.5"/>
  <line x1="365" y1="220" x2="365" y2="240" stroke="#111" stroke-width="1.5"/>
  <line x1="375" y1="220" x2="375" y2="240" stroke="#111" stroke-width="1.5"/>
  <line x1="385" y1="220" x2="385" y2="240" stroke="#111" stroke-width="1.5"/>
  <rect x="450" y="180" width="35" height="45" fill="none" stroke="#111" stroke-width="2"/>
  <polygon points="200,200 220,180 240,200" fill="none" stroke="#111" stroke-width="2"/>
  <line x1="370" y1="140" x2="300" y2="80" stroke="#111" stroke-width="1"/>
  <text x="260" y="75" font-family="Helvetica, Arial, sans-serif" font-size="14">14</text>
  <line x1="370" y1="200" x2="280" y2="280" stroke="#111" stroke-width="1"/>
  <text x="240" y="290" font-family="Helvetica, Arial, sans-serif" font-size="14">22</text>
  <line x1="467" y1="202" x2="520" y2="280" stroke="#111" stroke-width="1"/>
  <text x="525" y="290" font-family="Helvetica, Arial, sans-serif" font-size="14">18</text>
  <line x1="200" y1="190" x2="150" y2="140" stroke="#111" stroke-width="1"/>
  <text x="120" y="135" font-family="Helvetica, Arial, sans-serif" font-size="14">12</text>
  <path d="M350 140 L390 140 L390 280 L350 280 Z" fill="none" stroke="#111" stroke-width="1"/>
  <line x1="355" y1="145" x2="365" y2="155" stroke="#111" stroke-width="0.8"/>
  <line x1="365" y1="145" x2="375" y2="155" stroke="#111" stroke-width="0.8"/>
  <line x1="375" y1="145" x2="385" y2="155" stroke="#111" stroke-width="0.8"/>
  <text x="380" y="580" font-family="Helvetica, Arial, sans-serif" font-size="12">FIG. 2</text>
</svg>